<?xml version="1.0" standalone="no"?>
<!DOCTYPE svg PUBLIC "-//W3C//DTD SVG 20010904//EN"
 "http://www.w3.org/TR/2001/REC-SVG-20010904/DTD/svg10.dtd">
<svg version="1.0" xmlns="http://www.w3.org/2000/svg"
 width="225.000000pt" height="225.000000pt" viewBox="0 0 225.000000 225.000000"
 preserveAspectRatio="xMidYMid meet">

<g transform="translate(0.000000,225.000000) scale(0.100000,-0.100000)"
fill="#000000" stroke="none">
<path d="M444 2096 c-108 -35 -172 -74 -254 -156 -185 -184 -225 -418 -124
-725 112 -338 432 -721 801 -959 85 -55 229 -126 256 -126 25 0 147 57 232
110 366 224 695 605 820 950 33 91 65 252 65 323 -1 153 -72 320 -184 431
-122 121 -256 176 -432 176 -177 0 -323 -63 -445 -191 l-57 -60 -41 50 c-57
68 -162 137 -262 171 -74 26 -98 30 -194 29 -87 0 -125 -5 -181 -23z"/>
</g>
</svg>
